<svg width="88" height="88" viewBox="0 0 88 88" fill="none" xmlns="http://www.w3.org/2000/svg">
<g filter="url(#filter0_d_20708_441)">
<g filter="url(#filter1_b_20708_441)">
<circle cx="44" cy="40" r="29" fill="#007AFF" fill-opacity="0.8"/>
</g>
<path d="M50.8571 38.8571H45.1429V33.1429C45.1429 32.512 44.6309 32 44 32C43.3691 32 42.8571 32.512 42.8571 33.1429V38.8571H37.1429C36.512 38.8571 36 39.3691 36 40C36 40.6309 36.512 41.1429 37.1429 41.1429H42.8571V46.8571C42.8571 47.488 43.3691 48 44 48C44.6309 48 45.1429 47.488 45.1429 46.8571V41.1429H50.8571C51.488 41.1429 52 40.6309 52 40C52 39.3691 51.488 38.8571 50.8571 38.8571Z" fill="white"/>
</g>
<defs>
<filter id="filter0_d_20708_441" x="0" y="0" width="88" height="88" filterUnits="userSpaceOnUse" color-interpolation-filters="sRGB">
<feFlood flood-opacity="0" result="BackgroundImageFix"/>
<feColorMatrix in="SourceAlpha" type="matrix" values="0 0 0 0 0 0 0 0 0 0 0 0 0 0 0 0 0 0 127 0" result="hardAlpha"/>
<feOffset dy="4"/>
<feGaussianBlur stdDeviation="7.5"/>
<feColorMatrix type="matrix" values="0 0 0 0 0 0 0 0 0 0 0 0 0 0 0 0 0 0 0.2 0"/>
<feBlend mode="normal" in2="BackgroundImageFix" result="effect1_dropShadow_20708_441"/>
<feBlend mode="normal" in="SourceGraphic" in2="effect1_dropShadow_20708_441" result="shape"/>
</filter>
<filter id="filter1_b_20708_441" x="12" y="8" width="64" height="64" filterUnits="userSpaceOnUse" color-interpolation-filters="sRGB">
<feFlood flood-opacity="0" result="BackgroundImageFix"/>
<feGaussianBlur in="BackgroundImageFix" stdDeviation="1.5"/>
<feComposite in2="SourceAlpha" operator="in" result="effect1_backgroundBlur_20708_441"/>
<feBlend mode="normal" in="SourceGraphic" in2="effect1_backgroundBlur_20708_441" result="shape"/>
</filter>
</defs>
</svg>
