<svg width="26" height="27" viewBox="0 0 26 27" fill="none" xmlns="http://www.w3.org/2000/svg">
<path d="M11.1388 24.359L11.139 24.365H11.1389V24.3812C11.1478 24.5848 11.229 24.7608 11.3563 24.8881C11.4942 25.0259 11.6695 25.1055 11.8794 25.1055C11.9768 25.1055 12.0547 25.0896 12.1334 25.0581L12.1413 25.0549L12.1496 25.0527C12.2216 25.033 12.285 24.9865 12.3751 24.9165C12.569 24.7527 12.832 24.7681 13.0093 24.9162C13.0996 24.9864 13.1631 25.033 13.2351 25.0527L13.2434 25.0549L13.2514 25.0581C13.3394 25.0933 13.4199 25.1126 13.4918 25.1061L13.5054 25.1048V25.1055C13.7141 25.1055 13.8994 25.0171 14.0285 24.8881C14.1663 24.7502 14.2458 24.5749 14.2458 24.365V24.3456C14.2458 24.1569 14.1677 23.9812 14.0285 23.842C13.8994 23.7129 13.7141 23.6246 13.5054 23.6246C13.2485 23.6246 13.0265 23.4028 13.0263 23.1459L11.1388 24.359ZM11.1388 24.359C11.1311 24.1662 11.2158 23.9825 11.3563 23.842C11.4854 23.7129 11.6707 23.6246 11.8794 23.6246C12.1363 23.6246 12.3582 23.4028 12.3584 23.1459L11.1388 24.359ZM13.0171 19.6341L13.0263 23.1455H12.3584L12.3677 19.6341C12.4702 19.6369 12.577 19.6369 12.6892 19.6369H12.6924H12.6956C12.8078 19.6369 12.9146 19.6369 13.0171 19.6341ZM9.53579 17.0124L9.53577 17.0124L9.53641 17.0151C9.53961 17.0284 9.54279 17.0417 9.54598 17.055C9.681 17.6188 9.80949 18.1552 10.0776 18.5862C10.3439 19.0143 10.7424 19.3318 11.3906 19.4988V22.7296C11.112 22.8124 10.8666 22.9589 10.6699 23.1556C10.3635 23.462 10.1614 23.8961 10.1614 24.365V24.3894L10.1691 24.4124L10.1713 24.4189C10.178 24.8779 10.3694 25.274 10.6699 25.5745C10.9778 25.8823 11.4016 26.0724 11.876 26.0829L11.876 26.083H11.8794C12.0971 26.083 12.2992 26.0286 12.4785 25.9688L12.4786 25.9691L12.4868 25.9658C12.5627 25.9354 12.6275 25.905 12.6924 25.8711C12.7572 25.905 12.8221 25.9354 12.898 25.9658L12.8979 25.966L12.9063 25.9688C13.0855 26.0286 13.2876 26.083 13.5054 26.083V26.083L13.5087 26.0829C13.9831 26.0724 14.407 25.8823 14.7148 25.5745C15.0213 25.268 15.2234 24.8339 15.2234 24.365V24.3407L15.2157 24.3176L15.213 24.3095C15.1969 23.864 15.0178 23.4585 14.7148 23.1556C14.5182 22.9589 14.2728 22.8124 13.9942 22.7296V19.4988C14.6423 19.3318 15.0409 19.0143 15.3072 18.5862C15.5753 18.1552 15.7038 17.6188 15.8388 17.055C15.842 17.0417 15.8452 17.0284 15.8484 17.0151L15.8484 17.0151L15.849 17.0124C15.975 16.4402 16.1166 15.8114 16.4536 15.1936L16.4536 15.1936L16.4545 15.192C16.7147 14.7004 17.0137 14.1699 17.314 13.6371C17.9036 12.5933 18.5025 11.5321 18.9535 10.5277C19.4034 9.52563 19.7143 8.56308 19.7143 7.7175C19.7143 5.77913 18.9328 4.02826 17.6572 2.75268C16.3914 1.48689 14.6309 0.695562 12.6924 0.695562C10.7539 0.695562 8.99336 1.48689 7.72757 2.75268C6.45199 4.02826 5.67045 5.77913 5.67045 7.7175C5.67045 10.0704 6.69261 11.6433 7.77594 13.2876C8.17242 13.8968 8.57583 14.531 8.93064 15.1927L8.93115 15.1936C9.26813 15.8114 9.40973 16.4402 9.53579 17.0124ZM10.4867 16.792L10.4864 16.7905C10.4819 16.7719 10.4775 16.7533 10.4731 16.7346C10.3316 16.1397 10.171 15.464 9.78598 14.7325L9.78555 14.7317C9.41833 14.0443 9.01506 13.43 8.62324 12.8332C8.60846 12.8106 8.59369 12.7881 8.57893 12.7656C8.57878 12.7654 8.57863 12.7652 8.57848 12.765L8.54349 12.7104C7.54811 11.1602 6.63862 9.74381 6.64797 7.71819L6.64796 7.71665C6.63852 6.0457 7.31803 4.53501 8.41396 3.43908C9.50989 2.34314 11.0206 1.66363 12.6915 1.67307L12.6915 1.67308L12.6932 1.67307C14.3642 1.66363 15.8749 2.34314 16.9708 3.43908C18.0667 4.53501 18.7462 6.0457 18.7368 7.71665L18.7368 7.7175C18.7368 8.40989 18.4629 9.26141 18.0363 10.2036C17.6113 11.1424 17.0437 12.1529 16.4721 13.1604L16.4715 13.1616L16.0359 13.9455L15.6004 14.7295L15.6004 14.7295L15.5988 14.7325C15.2138 15.464 15.0531 16.1397 14.9117 16.7346C14.9073 16.7533 14.9028 16.7719 14.8984 16.7905L14.8984 16.7905L14.898 16.792C14.7651 17.3779 14.6549 17.8339 14.3665 18.1551C14.0877 18.4656 13.6159 18.6739 12.6924 18.6787C11.7689 18.6739 11.2971 18.4656 11.0183 18.1551C10.7298 17.8339 10.6196 17.3779 10.4867 16.792ZM12.6953 3.11523C12.4273 3.10397 12.2036 3.32663 12.2132 3.59434C12.2036 3.86223 12.4276 4.08501 12.6959 4.07342C13.6983 4.07437 14.6078 4.48296 15.2673 5.14254C15.9269 5.80212 16.3355 6.71162 16.3365 7.71397C16.3245 7.98916 16.5549 8.20625 16.8252 8.20626C17.0823 8.20626 17.3043 7.98424 17.3043 7.72718C17.3043 6.44707 16.7842 5.28658 15.9537 4.45615C15.1244 3.62677 13.9652 3.10638 12.6953 3.11523Z" fill="#FF3B30" stroke="#FF3B30" stroke-width="0.3"/>
</svg>
